<svg width="36" height="35" viewBox="0 0 36 35" fill="none" xmlns="http://www.w3.org/2000/svg">
<path d="M32.0742 0H4.87093C2.73353 0 0.984741 1.75 0.984741 3.88889V31.1111C0.984741 33.25 2.73353 35 4.87093 35H32.0742C34.2116 35 35.9604 33.25 35.9604 31.1111V3.88889C35.9604 1.75 34.2116 0 32.0742 0ZM32.0742 31.1111H4.87093V3.88889H32.0742V31.1111Z" fill="black" fill-opacity="0.42"/>
<path d="M12.6434 17.5H8.7572V27.2222H12.6434V17.5Z" fill="black" fill-opacity="0.42"/>
<path d="M28.1881 7.77777H24.3019V27.2222H28.1881V7.77777Z" fill="black" fill-opacity="0.42"/>
<path d="M20.4157 21.3889H16.5295V27.2222H20.4157V21.3889Z" fill="black" fill-opacity="0.42"/>
<path d="M20.4157 13.6111H16.5295V17.5H20.4157V13.6111Z" fill="black" fill-opacity="0.42"/>
</svg>
